<?xml version="1.0" encoding="utf-8"?>
<!-- Generator: Adobe Illustrator 24.1.2, SVG Export Plug-In . SVG Version: 6.00 Build 0)  -->
<svg version="1.1" id="图层_1" xmlns="http://www.w3.org/2000/svg" xmlns:xlink="http://www.w3.org/1999/xlink" x="0px" y="0px"
	 viewBox="0 0 22 22" style="enable-background:new 0 0 22 22;" xml:space="preserve">
<path d="M9,12c0-0.3,0.2-0.5,0.5-0.5h3c0.3,0,0.5,0.2,0.5,0.5s-0.2,0.5-0.5,0.5h-3C9.2,12.5,9,12.3,9,12z M6.9,7.1
	C6.7,7,6.3,7,6.1,7.1S6,7.7,6.1,7.9l0,0l1.6,1.6l-1.6,1.6c-0.2,0.2-0.2,0.5,0,0.7s0.5,0.2,0.7,0l2-2C9,9.7,9,9.3,8.9,9.1l0,0
	L6.9,7.1z"/>
<path d="M5,4C3.9,4,3,4.9,3,6v10c0,1.1,0.9,2,2,2h12c1.1,0,2-0.9,2-2V6c0-1.1-0.9-2-2-2H5z M17,5c0.6,0,1,0.4,1,1v10
	c0,0.6-0.4,1-1,1H5c-0.6,0-1-0.4-1-1V6c0-0.6,0.4-1,1-1H17z"/>
</svg>
