<?xml version="1.0" encoding="utf-8"?>
<!-- Generator: Adobe Illustrator 24.1.2, SVG Export Plug-In . SVG Version: 6.00 Build 0)  -->
<svg version="1.1" id="图层_1" xmlns="http://www.w3.org/2000/svg" xmlns:xlink="http://www.w3.org/1999/xlink" x="0px" y="0px"
	 viewBox="0 0 20 20" style="enable-background:new 0 0 20 20;" xml:space="preserve">
<path d="M8,11c0-0.3,0.2-0.5,0.5-0.5h3c0.3,0,0.5,0.2,0.5,0.5s-0.2,0.5-0.5,0.5h-3C8.2,11.5,8,11.3,8,11z M5.9,6.1
	C5.7,6,5.3,6,5.1,6.1S5,6.7,5.1,6.9l0,0l1.6,1.6l-1.6,1.6c-0.2,0.2-0.2,0.5,0,0.7s0.5,0.2,0.7,0l2-2C8,8.7,8,8.3,7.9,8.1
	c0,0,0,0,0,0L5.9,6.1z"/>
<path d="M4,3C2.9,3,2,3.9,2,5v10c0,1.1,0.9,2,2,2h12c1.1,0,2-0.9,2-2V5c0-1.1-0.9-2-2-2H4z M16,4c0.6,0,1,0.4,1,1v10
	c0,0.6-0.4,1-1,1H4c-0.6,0-1-0.4-1-1V5c0-0.6,0.4-1,1-1H16z"/>
</svg>
