<?xml version="1.0" encoding="utf-8"?>
<!-- Generator: Adobe Illustrator 26.2.1, SVG Export Plug-In . SVG Version: 6.00 Build 0)  -->
<svg version="1.1" id="图层_1" xmlns="http://www.w3.org/2000/svg" xmlns:xlink="http://www.w3.org/1999/xlink" x="0px" y="0px"
	 viewBox="0 0 202.2 265.4" style="enable-background:new 0 0 202.2 265.4;" xml:space="preserve">
<style type="text/css">
	.st0{fill:#FFFFFF;}
	.st1{fill:#FAFAFA;stroke:#000000;stroke-miterlimit:10;}
	.st2{fill:none;}
	.st3{fill:#39B54A;}
	.st4{font-family:'Arial-BoldMT';}
	.st5{font-size:32px;}
</style>
<path class="st0" d="M191.7,75.9v158.3c0,12.1-9.8,21.8-21.8,21.8H31.6c-12.1,0-21.8-9.8-21.8-21.8V31.9c0-12.1,9.8-21.8,21.8-21.8
	h93.1"/>
<path class="st1" d="M197.4,77.7v156.4c0,15.3-12.4,27.6-27.6,27.6H33c-15.3,0-27.6-12.4-27.6-27.6V33.3C5.4,18.1,17.7,5.7,33,5.7
	h92.4L197.4,77.7z M156,77.7c-16.9,0-30.6-13.7-30.6-30.6V13.7H34c-11.3,0-20.6,9.3-20.6,20.6v198.7c0,11.3,9.3,20.6,20.6,20.6
	h134.7c11.3,0,20.6-9.3,20.6-20.6V77.7H156z"/>
<g>
	<path class="st2" d="M150.4,142.6"/>
	<path class="st2" d="M101.4,191.6c-27.1,0-49-21.9-49-49s21.9-49,49-49"/>
	<g>
		<path class="st3" d="M101.4,154.3c-6.9,0-12.4-6-11.6-13.1c0.7-5.4,5-9.6,10.3-10.2c4.5-0.5,8.5,1.6,10.8,4.9
			c1,1.4,2.6,2.3,4.3,2.3h31.6c1.1,0,2.1-1,1.9-2.1c-3.1-23.3-23.1-41.3-47.4-41.3c-20.8,0-38.4,13.2-45.1,31.7
			c-2.1,5.7,2.2,11.8,8.3,11.8l0,0c3.7,0,7-2.3,8.3-5.8c4.2-11.7,15.5-20.1,28.6-20c9.1,0,17.3,4.1,22.9,10.6c2.5,2.9,1.5,7.5-2.1,9
			l0,0c-2.3,1-5,0.3-6.7-1.6c-3.4-4-8.5-6.5-14.2-6.5c-10.1,0-18.4,8.1-18.8,18.1c-0.3,10.4,8.2,19.3,18.6,19.4
			c5.8,0,11-2.6,14.5-6.7c1.6-1.9,4.3-2.5,6.6-1.5l0,0c3.5,1.5,4.7,6,2.2,8.9c-5.6,6.5-13.8,10.7-23.1,10.7
			c-13.1,0-24.2-8.3-28.4-20c-1.3-3.5-4.6-5.9-8.3-5.9l0,0c-6.1,0-10.3,6-8.3,11.7c6.6,18.5,24.3,31.7,45.1,31.7
			c24.2,0,44.2-18,47.4-41.3c0.2-1.1-0.8-2.1-1.9-2.1h-31.6c-1.7,0-3.3,0.8-4.3,2.2C108.9,152.3,105.3,154.3,101.4,154.3z"/>
	</g>
</g>
<text transform="matrix(1 0 0 1 54.2579 236.6067)" class="st4 st5">DOCK</text>
</svg>
