<?xml version="1.0" encoding="utf-8"?>
<!-- Generator: Adobe Illustrator 26.2.1, SVG Export Plug-In . SVG Version: 6.00 Build 0)  -->
<svg version="1.1" id="图层_1" xmlns="http://www.w3.org/2000/svg" xmlns:xlink="http://www.w3.org/1999/xlink" x="0px" y="0px"
	 viewBox="0 0 22 22" style="enable-background:new 0 0 22 22;" xml:space="preserve">
<path d="M9,8.5C9,9.3,8.3,10,7.5,10S6,9.3,6,8.5S6.7,7,7.5,7S9,7.7,9,8.5z"/>
<path d="M5,4C3.9,4,3,4.9,3,6v10c0,1.1,0.9,2,2,2h12c1.1,0,2-0.9,2-2V6c0-1.1-0.9-2-2-2C17,4,5,4,5,4z M17,5c0.6,0,1,0.4,1,1v6.5
	l-3.8-1.9c-0.2-0.1-0.4-0.1-0.6,0.1l-3.7,3.7l-2.7-1.8c-0.2-0.1-0.5-0.1-0.6,0.1L4,15V6c0-0.6,0.4-1,1-1H17z"/>
</svg>
