<?xml version="1.0" encoding="utf-8"?>
<!-- Generator: Adobe Illustrator 24.1.2, SVG Export Plug-In . SVG Version: 6.00 Build 0)  -->
<svg version="1.1" id="图层_1" xmlns="http://www.w3.org/2000/svg" xmlns:xlink="http://www.w3.org/1999/xlink" x="0px" y="0px"
	 viewBox="0 0 22 22" style="enable-background:new 0 0 22 22;" xml:space="preserve">
<path d="M4.5,5.5C4.5,4.7,5.2,4,6,4h10c0.8,0,1.5,0.7,1.5,1.5v3.6c1.1,0.3,1.7,1.4,1.4,2.4c-0.2,0.7-0.7,1.3-1.4,1.4v3.6
	c0,0.8-0.7,1.5-1.5,1.5H6c-0.8,0-1.5-0.7-1.5-1.5v-3.6c-1.1-0.3-1.7-1.4-1.4-2.4c0.2-0.7,0.7-1.3,1.4-1.4V5.5z M5.5,9.1
	c1.1,0.3,1.7,1.4,1.4,2.4c-0.2,0.7-0.7,1.3-1.4,1.4v3.6C5.5,16.8,5.7,17,6,17h10c0.3,0,0.5-0.2,0.5-0.5v-3.6
	c-1.1-0.3-1.7-1.4-1.4-2.4c0.2-0.7,0.7-1.3,1.4-1.4V5.5C16.5,5.2,16.3,5,16,5H6C5.7,5,5.5,5.2,5.5,5.5V9.1z M5,10c-0.6,0-1,0.4-1,1
	c0,0.6,0.4,1,1,1s1-0.4,1-1C6,10.4,5.6,10,5,10z M17,10c-0.6,0-1,0.4-1,1c0,0.6,0.4,1,1,1s1-0.4,1-1C18,10.4,17.6,10,17,10z"/>
</svg>
