<?xml version="1.0" encoding="utf-8"?>
<!-- Generator: Adobe Illustrator 24.1.2, SVG Export Plug-In . SVG Version: 6.00 Build 0)  -->
<svg version="1.1" id="图层_1" xmlns="http://www.w3.org/2000/svg" xmlns:xlink="http://www.w3.org/1999/xlink" x="0px" y="0px"
	 viewBox="0 0 256 256" style="enable-background:new 0 0 256 256;" xml:space="preserve">
<style type="text/css">
	.st0{fill:none;}
	.st1{display:none;}
	.st2{display:inline;fill:none;}
	.st3{display:inline;fill:#FFFFFF;}
	.st4{fill:#39B54A;}
</style>
<path class="st0" d="M256,128"/>
<path class="st0" d="M128,256C57.3,256,0,198.7,0,128S57.3,0,128,0"/>
<g class="st1">
	<path class="st2" d="M129.5,202.9c42.2,2.6,77.1-32.2,74.4-74.4c-2.3-35.3-31.1-63.6-66.4-65.3C113.7,62,92.4,72.8,78.9,90l52.1,52
		L78.9,89.9c-9.7,12.4-15.4,28.2-14.8,45.3C65.2,171.1,93.7,200.6,129.5,202.9z"/>
	<path class="st3" d="M135.8,33c-31.4-0.5-58.5,12.4-77.2,34.5L84,61l-4.1,27.9c13.5-17.2,33.8-26.9,57.6-25.8
		c35.3,1.7,64.1,30,66.4,65.3c2.7,42.3-32.1,77.1-74.3,74.4c-35.8-2.2-64.4-31.8-65.5-67.6c-0.4-13.1,2.8-25.3,8.6-35.9
		c3.3-5.9,2.4-13.3-2.4-18l0,0c-7.1-7.1-19-5.3-23.8,3.4c-8,14.5-12.6,31.3-12.4,49.2c0.5,54.9,45.8,99.6,100.7,99.1
		c55.6-0.4,100.3-46.1,99.3-102C232.9,77.5,189.3,34,135.8,33z"/>
</g>
<g>
	<path class="st4" d="M-212,148.3"/>
	<path class="st4" d="M-212,125.3"/>
</g>
<g>
	<path class="st4" d="M128,158.5c-18,0-32.5-15.8-30.3-34.3c1.7-14,13-25.1,26.9-26.6c11.7-1.2,22.2,4.1,28.2,12.8
		c2.6,3.7,6.8,6,11.3,6l82.6,0c3,0,5.4-2.6,5-5.6C243.5,50,191.3,3,128,3C73.7,3,27.6,37.6,10.3,85.8c-5.4,14.9,5.8,30.7,21.7,30.7
		h0c9.7,0,18.3-6.1,21.7-15.2C64.7,70.7,94.2,48.8,128.3,49c23.9,0.1,45.3,10.8,59.7,27.7c6.6,7.7,3.9,19.7-5.5,23.6l0,0
		c-6.1,2.6-13.1,0.8-17.4-4.2C156.3,85.7,142.9,79,128,79c-26.5,0-48.1,21.1-49,47.4c-0.9,27.2,21.4,50.4,48.6,50.6
		c15.2,0.1,28.7-6.7,37.8-17.4c4.2-5,11.2-6.5,17.2-3.9l0,0c9.2,3.9,12.2,15.7,5.7,23.3c-14.5,17.1-36.1,28-60.4,28
		c-34.2,0-63.3-21.7-74.3-52.2c-3.3-9.2-11.9-15.3-21.7-15.3h0c-15.9,0-27,15.7-21.7,30.6C27.5,218.4,73.7,253,128,253
		c63.3,0,115.5-47,123.9-107.9c0.4-3-2-5.6-5-5.6h-82.6c-4.5,0-8.6,2.2-11.2,5.8C147.6,153.3,138.4,158.5,128,158.5z"/>
</g>
</svg>
