<?xml version="1.0" encoding="utf-8"?>
<!-- Generator: Adobe Illustrator 24.1.2, SVG Export Plug-In . SVG Version: 6.00 Build 0)  -->
<svg version="1.1" id="图层_1" xmlns="http://www.w3.org/2000/svg" xmlns:xlink="http://www.w3.org/1999/xlink" x="0px" y="0px"
	 viewBox="0 0 20 20" style="enable-background:new 0 0 20 20;" xml:space="preserve">
<path d="M10,17c-3.9,0-7-3.1-7-7s3.1-7,7-7s7,3.1,7,7S13.9,17,10,17z M10,18c4.4,0,8-3.6,8-8s-3.6-8-8-8s-8,3.6-8,8S5.6,18,10,18z"
	/>
<path d="M10,6c0.3,0,0.5,0.2,0.5,0.5v3h3c0.3,0,0.5,0.2,0.5,0.5s-0.2,0.5-0.5,0.5h-3v3c0,0.3-0.2,0.5-0.5,0.5s-0.5-0.2-0.5-0.5v-3
	h-3C6.2,10.5,6,10.3,6,10s0.2-0.5,0.5-0.5h3v-3C9.5,6.2,9.7,6,10,6z"/>
</svg>
