<?xml version="1.0" encoding="utf-8"?>
<!-- Generator: Adobe Illustrator 24.1.2, SVG Export Plug-In . SVG Version: 6.00 Build 0)  -->
<svg version="1.1" id="图层_1" xmlns="http://www.w3.org/2000/svg" xmlns:xlink="http://www.w3.org/1999/xlink" x="0px" y="0px"
	 viewBox="0 0 22 22" style="enable-background:new 0 0 22 22;" xml:space="preserve">
<path d="M11,9.5c0.3,0,0.5,0.2,0.5,0.5v1.5H13c0.3,0,0.5,0.2,0.5,0.5s-0.2,0.5-0.5,0.5h-1.5V14c0,0.3-0.2,0.5-0.5,0.5
	s-0.5-0.2-0.5-0.5v-1.5H9c-0.3,0-0.5-0.2-0.5-0.5s0.2-0.5,0.5-0.5h1.5V10C10.5,9.7,10.7,9.5,11,9.5z"/>
<path d="M17,7.5V17c0,1.1-0.9,2-2,2H7c-1.1,0-2-0.9-2-2V5c0-1.1,0.9-2,2-2h5.5L17,7.5z M14,7.5c-0.8,0-1.5-0.7-1.5-1.5V4H7
	C6.4,4,6,4.4,6,5v12c0,0.6,0.4,1,1,1h8c0.6,0,1-0.4,1-1V7.5H14z"/>
</svg>
