<?xml version="1.0" encoding="utf-8"?>
<!-- Generator: Adobe Illustrator 24.1.2, SVG Export Plug-In . SVG Version: 6.00 Build 0)  -->
<svg version="1.1" id="图层_1" xmlns="http://www.w3.org/2000/svg" xmlns:xlink="http://www.w3.org/1999/xlink" x="0px" y="0px"
	 viewBox="0 0 22 22" style="enable-background:new 0 0 22 22;" xml:space="preserve">
<path d="M8.5,10C8.2,10,8,10.2,8,10.5S8.2,11,8.5,11h5c0.3,0,0.5-0.2,0.5-0.5S13.8,10,13.5,10H8.5z M8,12.5C8,12.2,8.2,12,8.5,12h5
	c0.3,0,0.5,0.2,0.5,0.5S13.8,13,13.5,13h-5C8.2,13,8,12.8,8,12.5z M8,14.5C8,14.2,8.2,14,8.5,14h2c0.3,0,0.5,0.2,0.5,0.5
	S10.8,15,10.5,15h-2C8.2,15,8,14.8,8,14.5z"/>
<path d="M12.5,3H7C5.9,3,5,3.9,5,5v12c0,1.1,0.9,2,2,2h8c1.1,0,2-0.9,2-2V7.5L12.5,3z M12.5,4v2c0,0.8,0.7,1.5,1.5,1.5h2V17
	c0,0.6-0.4,1-1,1H7c-0.6,0-1-0.4-1-1V5c0-0.6,0.4-1,1-1H12.5z"/>
</svg>
