<?xml version="1.0" encoding="utf-8"?>
<!-- Generator: Adobe Illustrator 24.1.2, SVG Export Plug-In . SVG Version: 6.00 Build 0)  -->
<svg version="1.1" id="图层_1" xmlns="http://www.w3.org/2000/svg" xmlns:xlink="http://www.w3.org/1999/xlink" x="0px" y="0px"
	 viewBox="0 0 20 20" style="enable-background:new 0 0 20 20;" xml:space="preserve">
<style type="text/css">
	.st0{fill-rule:evenodd;clip-rule:evenodd;}
</style>
<path class="st0" d="M3,10c0,3.9,3.1,7,7,7s7-3.1,7-7s-3.1-7-7-7S3,6.1,3,10z M18,10c0,4.4-3.6,8-8,8s-8-3.6-8-8s3.6-8,8-8
	S18,5.6,18,10z M10.5,6.5C10.5,6.2,10.3,6,10,6S9.5,6.2,9.5,6.5v5.8l-2.1-2.1c-0.2-0.2-0.5-0.2-0.7,0s-0.2,0.5,0,0.7l3,3
	c0.2,0.2,0.5,0.2,0.7,0c0,0,0,0,0,0l3-3c0.2-0.2,0.2-0.5,0-0.7s-0.5-0.2-0.7,0l-2.1,2.1V6.5z"/>
</svg>
