<?xml version="1.0" encoding="utf-8"?>
<!-- Generator: Adobe Illustrator 24.1.2, SVG Export Plug-In . SVG Version: 6.00 Build 0)  -->
<svg version="1.1" id="图层_1" xmlns="http://www.w3.org/2000/svg" xmlns:xlink="http://www.w3.org/1999/xlink" x="0px" y="0px"
	 viewBox="0 0 22 22" style="enable-background:new 0 0 22 22;" xml:space="preserve">
<path d="M17,7.5V17c0,1.1-0.9,2-2,2H7c-1.1,0-2-0.9-2-2V5c0-1.1,0.9-2,2-2h5.5L17,7.5z M14,7.5c-0.8,0-1.5-0.7-1.5-1.5V4H7
	C6.4,4,6,4.4,6,5v12c0,0.6,0.4,1,1,1h8c0.6,0,1-0.4,1-1V7.5H14z"/>
<path d="M7.5,15.5C7.5,15.2,7.7,15,8,15h3c0.3,0,0.5,0.2,0.5,0.5S11.3,16,11,16H8C7.7,16,7.5,15.8,7.5,15.5z M7.5,13.5
	C7.5,13.2,7.7,13,8,13h6c0.3,0,0.5,0.2,0.5,0.5S14.3,14,14,14H8C7.7,14,7.5,13.8,7.5,13.5z M9.1,9.8l1.3,0.9l1.9-1.9
	c0.1-0.1,0.2-0.1,0.3,0l1.9,1v1.8c0,0.3-0.2,0.5-0.5,0.5H8c-0.3,0-0.5-0.2-0.5-0.5V11C7.5,11,9,9.7,9.1,9.8z M9.3,9
	C9.7,9,10,8.7,10,8.3c0-0.4-0.3-0.8-0.8-0.8S8.5,7.8,8.5,8.3C8.5,8.7,8.8,9,9.3,9z"/>
</svg>
