<?xml version="1.0" encoding="utf-8"?>
<!-- Generator: Adobe Illustrator 26.2.1, SVG Export Plug-In . SVG Version: 6.00 Build 0)  -->
<svg version="1.1" id="图层_1" xmlns="http://www.w3.org/2000/svg" xmlns:xlink="http://www.w3.org/1999/xlink" x="0px" y="0px"
	 viewBox="0 0 22 22" style="enable-background:new 0 0 22 22;" xml:space="preserve">
<path d="M11,7.8c-1.8,0-3.2,1.5-3.2,3.2s1.5,3.2,3.2,3.2s3.2-1.5,3.2-3.2S12.8,7.8,11,7.8z M8.8,11c0-1.2,1-2.2,2.2-2.2
	s2.2,1,2.2,2.2s-1,2.2-2.2,2.2S8.8,12.2,8.8,11z"/>
<path d="M12.8,4.3c-0.5-1.8-3.1-1.8-3.6,0L9.1,4.7C9,5.1,8.5,5.4,8,5.3c-0.1,0-0.1,0-0.2-0.1L7.6,5C5.9,4.1,4.1,5.9,5,7.6l0.2,0.3
	c0.2,0.4,0.1,1-0.3,1.2c-0.1,0-0.1,0.1-0.2,0.1L4.3,9.2c-1.8,0.5-1.8,3.1,0,3.6l0.3,0.1C5.1,13,5.4,13.5,5.3,14c0,0.1,0,0.1-0.1,0.2
	L5,14.4c-0.9,1.6,0.9,3.4,2.5,2.5l0.3-0.2c0.4-0.2,1-0.1,1.2,0.3c0,0.1,0.1,0.1,0.1,0.2l0.1,0.3c0.5,1.8,3.1,1.8,3.6,0l0.1-0.3
	c0.1-0.5,0.6-0.7,1.1-0.6c0.1,0,0.1,0,0.2,0.1l0.3,0.2c1.6,0.9,3.4-0.9,2.5-2.5l-0.2-0.3c-0.2-0.4-0.1-1,0.3-1.2
	c0.1,0,0.1-0.1,0.2-0.1l0.3-0.1c1.8-0.5,1.8-3.1,0-3.6l-0.3-0.1C16.9,9,16.6,8.5,16.7,8c0-0.1,0-0.1,0.1-0.2L17,7.6
	c0.9-1.6-0.9-3.4-2.5-2.5l-0.3,0.2c-0.4,0.2-1,0.1-1.2-0.3c0-0.1-0.1-0.1-0.1-0.2C12.9,4.7,12.8,4.3,12.8,4.3z M10.2,4.6
	c0.2-0.8,1.4-0.8,1.7,0l0.1,0.3c0.3,1,1.3,1.6,2.3,1.3c0.1,0,0.3-0.1,0.4-0.2l0.3-0.2c0.8-0.4,1.6,0.4,1.2,1.2l-0.2,0.3
	c-0.5,0.9-0.2,2,0.7,2.5c0.1,0.1,0.2,0.1,0.4,0.2l0.3,0.1c0.8,0.2,0.8,1.4,0,1.7l-0.3,0.1c-1,0.3-1.6,1.3-1.3,2.3
	c0,0.1,0.1,0.3,0.2,0.4l0.2,0.3c0.4,0.8-0.4,1.6-1.2,1.2l-0.3-0.2c-0.9-0.5-2-0.2-2.5,0.7c-0.1,0.1-0.1,0.2-0.2,0.4l-0.1,0.3
	c-0.2,0.8-1.4,0.8-1.7,0l-0.1-0.3c-0.3-1-1.3-1.6-2.3-1.3c-0.1,0-0.2,0.1-0.4,0.2l-0.3,0.2c-0.8,0.4-1.6-0.4-1.2-1.2l0.2-0.3
	c0.5-0.9,0.2-2-0.7-2.5C5.2,12,5.1,12,4.9,11.9l-0.3-0.1c-0.8-0.2-0.8-1.4,0-1.7l0.3-0.1c1-0.3,1.6-1.3,1.3-2.3
	c0-0.1-0.1-0.2-0.2-0.4L5.9,7.1C5.5,6.3,6.3,5.5,7.1,5.9l0.3,0.2c0.9,0.5,2,0.2,2.5-0.7C10,5.2,10,5.1,10.1,4.9
	C10.1,4.9,10.2,4.6,10.2,4.6z"/>
</svg>
