<?xml version="1.0" encoding="utf-8"?>
<!-- Generator: Adobe Illustrator 24.1.2, SVG Export Plug-In . SVG Version: 6.00 Build 0)  -->
<svg version="1.1" id="图层_1" xmlns="http://www.w3.org/2000/svg" xmlns:xlink="http://www.w3.org/1999/xlink" x="0px" y="0px"
	 viewBox="0 0 20 20" style="enable-background:new 0 0 20 20;" xml:space="preserve">
<style type="text/css">
	.st0{fill-rule:evenodd;clip-rule:evenodd;}
</style>
<path class="st0" d="M8.5,14c3,0,5.5-2.5,5.5-5.5S11.5,3,8.5,3l0,0C5.5,3,3,5.5,3,8.5S5.5,14,8.5,14z M15,8.5c0,3.6-2.9,6.5-6.5,6.5
	S2,12.1,2,8.5S4.9,2,8.5,2S15,4.9,15,8.5z"/>
<path d="M12.3,13.7c0,0,0.1,0.1,0.1,0.1l3.9,3.8c0.4,0.4,1,0.4,1.4,0s0.4-1,0-1.4l-3.9-3.9c0,0-0.1-0.1-0.1-0.1
	C13.3,12.9,12.9,13.3,12.3,13.7L12.3,13.7z"/>
<path class="st0" d="M8.5,5C8.8,5,9,5.2,9,5.5V8h2.5C11.8,8,12,8.2,12,8.5S11.8,9,11.5,9H9v2.5C9,11.8,8.8,12,8.5,12S8,11.8,8,11.5
	V9H5.5C5.2,9,5,8.8,5,8.5S5.2,8,5.5,8H8V5.5C8,5.2,8.2,5,8.5,5z"/>
</svg>
