<?xml version="1.0" encoding="utf-8"?>
<!-- Generator: Adobe Illustrator 24.1.2, SVG Export Plug-In . SVG Version: 6.00 Build 0)  -->
<svg version="1.1" id="图层_1" xmlns="http://www.w3.org/2000/svg" xmlns:xlink="http://www.w3.org/1999/xlink" x="0px" y="0px"
	 viewBox="0 0 22 22" style="enable-background:new 0 0 22 22;" xml:space="preserve">
<path d="M5,4C4.4,4,4,4.4,4,5s0.4,1,1,1s1-0.4,1-1S5.6,4,5,4z M3,5c0-1.1,0.9-2,2-2c0.9,0,1.7,0.6,1.9,1.5h8.1
	c0.3-1.1,1.4-1.7,2.4-1.4s1.7,1.4,1.4,2.4c-0.2,0.7-0.7,1.3-1.4,1.4v8.1c1.1,0.3,1.7,1.4,1.4,2.4s-1.4,1.7-2.4,1.4
	c-0.7-0.2-1.3-0.7-1.4-1.4H6.9c-0.3,1.1-1.4,1.7-2.4,1.4s-1.7-1.4-1.4-2.4c0.2-0.7,0.7-1.3,1.4-1.4V6.9C3.6,6.7,3,5.9,3,5z M5.5,6.9
	v8.1c0.7,0.2,1.3,0.7,1.4,1.4h8.1c0.2-0.7,0.7-1.3,1.4-1.4V6.9c-0.7-0.2-1.3-0.7-1.4-1.4H6.9C6.8,6.2,6.2,6.8,5.5,6.9z M17,4
	c-0.6,0-1,0.4-1,1s0.4,1,1,1s1-0.4,1-1S17.6,4,17,4z M5,16c-0.6,0-1,0.4-1,1s0.4,1,1,1s1-0.4,1-1S5.6,16,5,16z M17,16
	c-0.6,0-1,0.4-1,1s0.4,1,1,1s1-0.4,1-1S17.6,16,17,16z"/>
</svg>
