<?xml version="1.0" encoding="utf-8"?>
<!-- Generator: Adobe Illustrator 24.1.2, SVG Export Plug-In . SVG Version: 6.00 Build 0)  -->
<svg version="1.1" id="图层_1" xmlns="http://www.w3.org/2000/svg" xmlns:xlink="http://www.w3.org/1999/xlink" x="0px" y="0px"
	 viewBox="0 0 22 22" style="enable-background:new 0 0 22 22;" xml:space="preserve">
<path d="M11.2,4.1c-0.1,0-0.3,0-0.4,0l-6,2.4L11,9l6.2-2.5L11.2,4.1z M18,7.2l-6.5,2.6v7.9l6.5-2.6V7.2L18,7.2z M10.5,17.8V9.8
	L4,7.2v7.9C4,15.2,10.5,17.8,10.5,17.8z M10.4,3.2c0.4-0.1,0.8-0.1,1.1,0L18.7,6C18.9,6.1,19,6.3,19,6.5v8.7c0,0.4-0.2,0.8-0.6,0.9
	L11.2,19c-0.1,0-0.3,0-0.4,0l-7.2-2.9C3.2,15.9,3,15.6,3,15.2V6.5C3,6.3,3.1,6.1,3.3,6L10.4,3.2z"/>
</svg>
