<?xml version="1.0" encoding="utf-8"?>
<!-- Generator: Adobe Illustrator 24.1.2, SVG Export Plug-In . SVG Version: 6.00 Build 0)  -->
<svg version="1.1" id="图层_1" xmlns="http://www.w3.org/2000/svg" xmlns:xlink="http://www.w3.org/1999/xlink" x="0px" y="0px"
	 viewBox="0 0 22 22" style="enable-background:new 0 0 22 22;" xml:space="preserve">
<g>
	<path d="M9,4c2.8,0,5,2.2,5,5s-2.2,5-5,5s-5-2.2-5-5S6.2,4,9,4 M9,3C5.7,3,3,5.7,3,9s2.7,6,6,6s6-2.7,6-6S12.3,3,9,3L9,3z"/>
</g>
<path d="M15.9,8h1.6C17.8,8,18,8.2,18,8.5v9c0,0.3-0.2,0.5-0.5,0.5h-9C8.2,18,8,17.8,8,17.5v-1.6c-0.3,0-0.7-0.1-1-0.2v1.8
	C7,18.3,7.7,19,8.5,19l0,0h9c0.8,0,1.5-0.7,1.5-1.5l0,0v-9C19,7.7,18.3,7,17.5,7h-1.8C15.8,7.3,15.9,7.7,15.9,8z"/>
</svg>
