<?xml version="1.0" encoding="utf-8"?>
<!-- Generator: Adobe Illustrator 24.1.2, SVG Export Plug-In . SVG Version: 6.00 Build 0)  -->
<svg version="1.1" id="图层_1" xmlns="http://www.w3.org/2000/svg" xmlns:xlink="http://www.w3.org/1999/xlink" x="0px" y="0px"
	 viewBox="0 0 22 22" style="enable-background:new 0 0 22 22;" xml:space="preserve">
<path d="M8,3c0.3,0,0.5,0.2,0.5,0.5V5h1V3.5C9.5,3.2,9.7,3,10,3s0.5,0.2,0.5,0.5V5h1V3.5C11.5,3.2,11.7,3,12,3s0.5,0.2,0.5,0.5V5h1
	V3.5C13.5,3.2,13.7,3,14,3s0.5,0.2,0.5,0.5V5C15.9,5,17,6.1,17,7.5h1.5C18.8,7.5,19,7.7,19,8c0,0.3-0.2,0.5-0.5,0.5H17v1h1.5
	c0.3,0,0.5,0.2,0.5,0.5s-0.2,0.5-0.5,0.5H17v1h1.5c0.3,0,0.5,0.2,0.5,0.5s-0.2,0.5-0.5,0.5H17v1h1.5c0.3,0,0.5,0.2,0.5,0.5
	s-0.2,0.5-0.5,0.5H17c0,1.4-1.1,2.5-2.5,2.5v1.5c0,0.3-0.2,0.5-0.5,0.5s-0.5-0.2-0.5-0.5V17h-1v1.5c0,0.3-0.2,0.5-0.5,0.5
	s-0.5-0.2-0.5-0.5V17h-1v1.5c0,0.3-0.2,0.5-0.5,0.5s-0.5-0.2-0.5-0.5V17h-1v1.5C8.5,18.8,8.3,19,8,19c-0.3,0-0.5-0.2-0.5-0.5V17
	C6.1,17,5,15.9,5,14.5H3.5C3.2,14.5,3,14.3,3,14s0.2-0.5,0.5-0.5H5v-1H3.5C3.2,12.5,3,12.3,3,12s0.2-0.5,0.5-0.5H5v-1H3.5
	C3.2,10.5,3,10.3,3,10s0.2-0.5,0.5-0.5H5v-1H3.5C3.2,8.5,3,8.3,3,8c0-0.3,0.2-0.5,0.5-0.5H5C5,6.1,6.1,5,7.5,5V3.5
	C7.5,3.2,7.7,3,8,3z M7.5,6C6.7,6,6,6.7,6,7.5v7C6,15.3,6.7,16,7.5,16h7c0.8,0,1.5-0.7,1.5-1.5v-7C16,6.7,15.3,6,14.5,6H7.5z M8,9.5
	C8,8.7,8.7,8,9.5,8h3C13.3,8,14,8.7,14,9.5v3c0,0.8-0.7,1.5-1.5,1.5h-3C8.7,14,8,13.3,8,12.5V9.5z M9.5,9C9.2,9,9,9.2,9,9.5v3
	C9,12.8,9.2,13,9.5,13h3c0.3,0,0.5-0.2,0.5-0.5v-3C13,9.2,12.8,9,12.5,9H9.5z"/>
</svg>
