<?xml version="1.0" encoding="utf-8"?>
<!-- Generator: Adobe Illustrator 24.1.2, SVG Export Plug-In . SVG Version: 6.00 Build 0)  -->
<svg version="1.1" id="图层_1" xmlns="http://www.w3.org/2000/svg" xmlns:xlink="http://www.w3.org/1999/xlink" x="0px" y="0px"
	 viewBox="0 0 22 22" style="enable-background:new 0 0 22 22;" xml:space="preserve">
<path d="M17,7.6v6.8L11,18l-6-3.6V7.6L11,4C11,4,17,7.6,17,7.6z M11.5,3.1c-0.3-0.2-0.7-0.2-1,0l-6,3.6C4.2,6.9,4,7.2,4,7.6v6.8
	c0,0.4,0.2,0.7,0.5,0.9l6,3.6c0.3,0.2,0.7,0.2,1,0l6-3.6c0.3-0.2,0.5-0.5,0.5-0.9V7.6c0-0.4-0.2-0.7-0.5-0.9L11.5,3.1z"/>
</svg>
