<?xml version="1.0" encoding="utf-8"?>
<!-- Generator: Adobe Illustrator 26.2.1, SVG Export Plug-In . SVG Version: 6.00 Build 0)  -->
<svg version="1.1" id="图层_1" xmlns="http://www.w3.org/2000/svg" xmlns:xlink="http://www.w3.org/1999/xlink" x="0px" y="0px"
	 viewBox="0 0 22 22" style="enable-background:new 0 0 22 22;" xml:space="preserve">
<path d="M16.5,4C15.7,4,15,4.7,15,5.5S15.7,7,16.5,7C17.3,7,18,6.3,18,5.5S17.3,4,16.5,4z M14,5.5C14,4.1,15.1,3,16.5,3
	C17.9,3,19,4.1,19,5.5C19,6.9,17.9,8,16.5,8c-0.7,0-1.4-0.3-1.9-0.9l-6.7,3.1c0.2,0.5,0.2,1,0,1.5l6.7,3.1c0.9-1,2.5-1.2,3.5-0.3
	c1,0.9,1.2,2.5,0.3,3.5s-2.5,1.2-3.5,0.3c-0.8-0.7-1.1-1.7-0.8-2.6l-6.7-3.1c-0.9,1-2.5,1.2-3.5,0.3s-1.2-2.5-0.3-3.5
	s2.5-1.2,3.5-0.3c0.1,0.1,0.2,0.2,0.3,0.3l6.7-3.1C14,6,14,5.8,14,5.5z M5.5,9.5C4.7,9.5,4,10.2,4,11s0.7,1.5,1.5,1.5S7,11.8,7,11
	S6.3,9.5,5.5,9.5z M16.5,15c-0.8,0-1.5,0.7-1.5,1.5c0,0.8,0.7,1.5,1.5,1.5c0.8,0,1.5-0.7,1.5-1.5C18,15.7,17.3,15,16.5,15z"/>
</svg>
